<svg width="56" height="56" viewBox="0 0 56 56" fill="none" xmlns="http://www.w3.org/2000/svg">
<g clip-path="url(#clip0_2832_1777)">
<g clip-path="url(#clip1_2832_1777)">
<path d="M48.0204 3.18513C48.0484 3.84375 47.8826 4.49564 47.5444 5.05793C47.2061 5.62022 46.7088 6.0705 46.1163 6.34828C45.5237 6.62607 44.8629 6.72128 44.2177 6.62047C43.5711 6.51913 42.9694 6.22745 42.4894 5.78263C42.0074 5.33594 41.668 4.75693 41.5138 4.11817C41.3592 3.47859 41.3962 2.80654 41.6202 2.18712C41.8433 1.56995 42.2439 1.03254 42.7716 0.642508C43.2975 0.253879 43.9274 0.0311672 44.5806 0.00293273C45.4554 -0.0340305 46.3078 0.279597 46.953 0.876609C47.5981 1.47362 47.9812 2.30361 48.0193 3.18513H48.0204Z" fill="#767677"/>
<path d="M28.7681 42.3433C19.9754 42.3433 12.296 39.1219 8.30957 34.3525C9.7937 38.6313 12.5615 42.34 16.2275 44.9632C19.8936 47.5865 24.2777 48.9956 28.7726 48.9956C33.2676 48.9956 37.6516 47.5865 41.3177 44.9632C44.9838 42.34 47.7515 38.6313 49.2357 34.3525C45.2403 39.1219 37.5609 42.3433 28.7681 42.3433V42.3433Z" fill="#F37726"/>
<path d="M28.7634 11.3202C37.5562 11.3202 45.2356 14.5427 49.222 19.3109C47.7379 15.0322 44.9701 11.3235 41.304 8.70026C37.638 6.07699 33.2539 4.66791 28.759 4.66791C24.264 4.66791 19.8799 6.07699 16.2139 8.70026C12.5478 11.3235 9.78003 15.0322 8.2959 19.3109C12.2913 14.5516 19.9707 11.3202 28.7634 11.3202Z" fill="#F37726"/>
<path d="M16.6957 51.6179C16.7322 52.4472 16.5233 53.2689 16.0954 53.9802C15.6675 54.6903 15.0414 55.256 14.2943 55.6066C13.5472 55.9572 12.7149 56.077 11.9006 55.9493C11.0863 55.8216 10.328 55.4542 9.72202 54.8919C9.11605 54.3297 8.68817 53.6005 8.49327 52.7929C8.29922 51.9857 8.34674 51.1393 8.62993 50.3589C8.91331 49.5782 9.41959 48.9005 10.0849 48.4111C10.7503 47.9216 11.5444 47.6416 12.3677 47.6079C13.4687 47.562 14.5418 47.9597 15.3539 48.7112C16.1666 49.466 16.6488 50.5109 16.6957 51.619V51.619V51.6179Z" fill="#989798"/>
<path d="M9.31166 10.2455C8.8289 10.2668 8.35061 10.1425 7.9373 9.88935C7.52398 9.6362 7.19467 9.26545 6.99082 8.82301C6.78696 8.38058 6.71751 7.88773 6.79144 7.40609C6.86537 6.92445 7.0793 6.47529 7.40637 6.11686C7.73344 5.75843 8.15908 5.50529 8.6284 5.38992C9.09772 5.27455 9.59056 5.30255 10.0453 5.47056C10.5001 5.63858 10.8932 5.93764 11.1777 6.33192C11.5113 6.79265 11.6761 7.35421 11.6442 7.92213C11.6124 8.49005 11.386 9.02969 11.003 9.45027C10.565 9.93079 9.95683 10.2164 9.31054 10.2444L9.31166 10.2455Z" fill="#6F7070"/>
</g>
</g>
<defs>
<clipPath id="clip0_2832_1777">
<rect width="56" height="56" fill="white"/>
</clipPath>
<clipPath id="clip1_2832_1777">
<rect width="56" height="56" fill="white"/>
</clipPath>
</defs>
</svg>
