<svg width="300" height="300" viewBox="0 0 300 300" fill="none" xmlns="http://www.w3.org/2000/svg">
<g clip-path="url(#clip0_2709_1136)">
<mask id="mask0_2709_1136" style="mask-type:luminance" maskUnits="userSpaceOnUse" x="0" y="0" width="300" height="300">
<path d="M300 0H0V300H300V0Z" fill="white"/>
</mask>
<g mask="url(#mask0_2709_1136)">
<path d="M249.976 271.503C246.243 271.503 243.387 270.028 241.408 267.079C239.429 264.092 238.44 260.135 238.44 255.207C238.44 250.204 239.448 246.228 241.464 243.279C243.48 240.33 246.411 238.855 250.256 238.855C253.915 238.855 256.715 240.33 258.656 243.279C260.597 246.228 261.568 250.204 261.568 255.207C261.568 255.506 261.512 255.73 261.4 255.879C261.288 255.991 261.232 256.066 261.232 256.103H246.28C246.28 258.53 246.597 260.751 247.232 262.767C247.867 264.746 248.837 265.735 250.144 265.735C251.6 265.735 252.683 264.895 253.392 263.215C254.101 261.535 254.475 260.658 254.512 260.583L260.448 262.823C259.664 265.511 258.413 267.639 256.696 269.207C254.979 270.738 252.739 271.503 249.976 271.503ZM253.84 251.567C253.84 249.327 253.541 247.554 252.944 246.247C252.347 244.94 251.413 244.287 250.144 244.287C249.509 244.287 248.893 244.604 248.296 245.239C247.699 245.874 247.213 246.751 246.84 247.871C246.467 248.991 246.28 250.223 246.28 251.567H253.84Z" fill="#2F54EB"/>
<path d="M224.758 271.503C222.369 271.503 220.316 270.756 218.598 269.263C216.918 267.77 215.649 265.791 214.79 263.327C213.932 260.863 213.502 258.194 213.502 255.319C213.502 252.482 213.913 249.812 214.734 247.311C215.593 244.81 216.881 242.775 218.598 241.207C220.316 239.639 222.425 238.855 224.926 238.855C226.83 238.855 228.529 239.34 230.022 240.311C231.553 241.244 232.748 242.57 233.606 244.287C234.465 246.004 234.932 247.964 235.006 250.167L227.558 250.503C227.558 250.354 227.484 249.756 227.334 248.711C227.222 247.666 226.942 246.807 226.494 246.135C226.084 245.463 225.542 245.127 224.87 245.127C223.377 245.127 222.425 246.154 222.014 248.207C221.604 250.223 221.398 252.5 221.398 255.039C221.398 257.54 221.604 259.818 222.014 261.871C222.462 263.887 223.489 264.895 225.094 264.895C227.11 264.895 228.156 262.916 228.23 258.959L234.838 259.687C234.353 263.57 233.382 266.519 231.926 268.535C230.47 270.514 228.081 271.503 224.758 271.503Z" fill="#2F54EB"/>
<path d="M200.359 235.215V227.095L208.199 226.535V234.879L200.359 235.215ZM200.303 271.111V239.919L208.143 239.247V270.439L200.303 271.111Z" fill="#2F54EB"/>
<path d="M183.098 271.503C179.328 271.503 176.416 270.01 174.362 267.023C172.346 264.036 171.338 260.06 171.338 255.095C171.338 250.167 172.346 246.228 174.362 243.279C176.378 240.33 179.29 238.855 183.098 238.855C186.869 238.855 189.781 240.33 191.834 243.279C193.925 246.228 194.97 250.167 194.97 255.095C194.97 260.023 193.925 263.999 191.834 267.023C189.781 270.01 186.869 271.503 183.098 271.503ZM183.098 265.679C184.778 265.679 185.861 264.652 186.346 262.599C186.832 260.546 187.074 258.026 187.074 255.039C187.074 252.052 186.832 249.532 186.346 247.479C185.861 245.426 184.778 244.399 183.098 244.399C181.418 244.399 180.354 245.37 179.906 247.311C179.458 249.252 179.234 251.623 179.234 254.423C179.234 257.858 179.458 260.602 179.906 262.655C180.354 264.671 181.418 265.679 183.098 265.679Z" fill="#2F54EB"/>
<path d="M149.935 270.775L140.023 229.111L149.767 228.775L155.311 257.783L161.135 229.111L169.031 228.775L158.951 270.775H149.935Z" fill="#2F54EB"/>
<path d="M126.655 271.503C122.922 271.503 120.066 270.028 118.087 267.079C116.109 264.092 115.119 260.135 115.119 255.207C115.119 250.204 116.127 246.228 118.143 243.279C120.159 240.33 123.09 238.855 126.935 238.855C130.594 238.855 133.394 240.33 135.335 243.279C137.277 246.228 138.247 250.204 138.247 255.207C138.247 255.506 138.191 255.73 138.079 255.879C137.967 255.991 137.911 256.066 137.911 256.103H122.959C122.959 258.53 123.277 260.751 123.911 262.767C124.546 264.746 125.517 265.735 126.823 265.735C128.279 265.735 129.362 264.895 130.071 263.215C130.781 261.535 131.154 260.658 131.191 260.583L137.127 262.823C136.343 265.511 135.093 267.639 133.375 269.207C131.658 270.738 129.418 271.503 126.655 271.503ZM130.519 251.567C130.519 249.327 130.221 247.554 129.623 246.247C129.026 244.94 128.093 244.287 126.823 244.287C126.189 244.287 125.573 244.604 124.975 245.239C124.378 245.874 123.893 246.751 123.519 247.871C123.146 248.991 122.959 250.223 122.959 251.567H130.519Z" fill="#2F54EB"/>
<path d="M100.774 271.503C97.6753 271.503 95.174 270.812 93.27 269.431C91.366 268.012 90.134 266.052 89.574 263.551L95.678 261.535C95.8273 262.244 96.1073 262.879 96.518 263.439C97.3766 264.671 98.6273 265.287 100.27 265.287C101.203 265.287 102.099 265.082 102.958 264.671C103.817 264.26 104.246 263.626 104.246 262.767C104.246 261.61 103.443 260.714 101.838 260.079L95.23 257.391C93.4753 256.644 92.1313 255.524 91.198 254.031C90.2646 252.538 89.798 250.708 89.798 248.543C89.798 246.527 90.2833 244.791 91.254 243.335C92.262 241.879 93.5686 240.778 95.174 240.031C96.8166 239.247 98.5713 238.855 100.438 238.855C102.79 238.855 104.955 239.546 106.934 240.927C108.913 242.271 110.238 244.119 110.91 246.471L104.414 248.487C104.265 247.852 104.003 247.218 103.63 246.583C102.809 245.314 101.763 244.679 100.494 244.679C99.5606 244.679 98.758 244.903 98.086 245.351C97.414 245.762 97.078 246.378 97.078 247.199C97.078 248.17 97.9926 249.066 99.822 249.887L105.422 252.183C107.401 253.116 108.95 254.292 110.07 255.711C111.19 257.13 111.75 259.034 111.75 261.423C111.75 263.588 111.227 265.436 110.182 266.967C109.137 268.46 107.774 269.599 106.094 270.383C104.414 271.13 102.641 271.503 100.774 271.503Z" fill="#2F54EB"/>
<path d="M70.1585 271.503C68.8145 271.503 67.6012 271.092 66.5185 270.271C65.4359 269.412 64.5959 268.274 63.9985 266.855C63.4012 265.399 63.1025 263.775 63.1025 261.983C63.1025 257.914 64.4839 255.058 67.2465 253.415C70.0465 251.735 73.2945 250.783 76.9905 250.559C76.9905 248.543 76.8599 247.05 76.5985 246.079C76.3372 245.108 75.7025 244.623 74.6945 244.623C73.8359 244.623 73.1825 244.959 72.7345 245.631C72.2865 246.303 72.0065 247.162 71.8945 248.207L64.2225 246.863C64.5959 243.988 65.7719 241.935 67.7505 240.703C69.7292 239.471 72.0439 238.855 74.6945 238.855C78.0919 238.855 80.6305 239.751 82.3105 241.543C84.0279 243.335 84.8865 245.668 84.8865 248.543V264.839C84.8865 266.594 85.1665 268.46 85.7265 270.439L78.0545 271.111L77.1585 267.247C76.4865 268.442 75.4972 269.45 74.1905 270.271C72.8839 271.092 71.5399 271.503 70.1585 271.503ZM73.7985 265.903C74.4332 265.903 74.9559 265.754 75.3665 265.455C75.8145 265.156 76.3559 264.671 76.9905 263.999V255.263C75.1239 255.263 73.6305 255.767 72.5105 256.775C71.3905 257.783 70.8305 259.351 70.8305 261.479C70.8305 262.898 71.0732 263.999 71.5585 264.783C72.0812 265.53 72.8279 265.903 73.7985 265.903Z" fill="#2F54EB"/>
<path d="M38.4402 270.775V228.775H59.7762L59.1042 235.327H46.6722V245.351H55.5202L55.4642 252.407H46.6722V264.223H60.2242L59.5522 270.775H38.4402Z" fill="#2F54EB"/>
<path d="M156.787 162.384C178.337 174.328 210.771 157.013 229.23 123.71C247.69 90.4061 245.185 53.7252 223.636 41.7806C202.086 29.836 169.652 47.1509 151.193 80.4545C132.733 113.758 135.238 150.439 156.787 162.384Z" fill="#2F54EB"/>
<path d="M233.278 173.933C242.98 157.788 230.618 132.544 205.666 117.549C180.714 102.555 152.621 103.488 142.919 119.634C133.217 135.779 145.579 161.023 170.531 176.017C195.482 191.012 223.575 190.079 233.278 173.933Z" fill="#76DFFF"/>
<path d="M223.787 132.504C204.882 159.958 176.35 173.227 156.788 162.383C148.216 157.632 142.657 148.967 140.233 138.157C138.898 131.448 139.675 125.032 142.919 119.634C152.621 103.488 180.714 102.555 205.666 117.549C212.814 121.845 218.928 126.981 223.787 132.504Z" fill="#36ABF9"/>
<path d="M136.745 156.832C127.973 171.431 102.573 172.275 80.0123 158.719C57.4518 145.163 46.2737 122.339 55.0455 107.741C63.8173 93.1426 89.2172 92.2981 111.778 105.854C134.338 119.411 145.516 142.234 136.745 156.832Z" fill="#2F54EB"/>
<path d="M94.9477 190.183C83.5595 183.871 82.2352 164.487 91.9896 146.887C101.744 129.288 118.883 120.137 130.272 126.449C141.66 132.76 142.984 152.145 133.23 169.744C123.475 187.344 106.336 196.495 94.9477 190.183Z" fill="#76DFFF"/>
<path d="M86.3103 162.102C107.116 172.003 128.782 170.085 136.745 156.833C140.232 151.029 140.566 143.925 138.285 136.62C136.766 132.137 134.082 128.561 130.272 126.449C118.883 120.137 101.744 129.288 91.9895 146.888C89.1953 151.929 87.3102 157.117 86.3103 162.102Z" fill="#36ABF9"/>
</g>
</g>
<defs>
<clipPath id="clip0_2709_1136">
<rect width="300" height="300" fill="white"/>
</clipPath>
</defs>
</svg>
